<?xml version="1.0" encoding="UTF-8"?>
<svg width="337px" height="464px" viewBox="0 0 337 464" version="1.1" xmlns="http://www.w3.org/2000/svg" xmlns:xlink="http://www.w3.org/1999/xlink">
    <!-- Generator: Sketch 52.6 (67491) - http://www.bohemiancoding.com/sketch -->
    <title>swipe</title>
    <desc>Created with Sketch.</desc>
    <g id="swipe" stroke="none" stroke-width="1" fill="none" fill-rule="evenodd">
        <g fill="#FFFFFF">
            <path d="M96.77,31.524 L40.05,31.524 L48.77,27.124 L62.69,13.204 C65.564,9.848 65.173,4.798 61.817,1.924 C58.822,-0.641 54.405,-0.641 51.41,1.924 L19.41,33.924 C16.308,37.044 16.308,42.084 19.41,45.204 L51.09,77.204 C54.446,80.078 59.496,79.687 62.37,76.331 C64.935,73.336 64.935,68.919 62.37,65.924 L48.77,52.084 L40.05,47.524 L96.77,47.524 C101.188,47.524 104.77,43.942 104.77,39.524 C104.77,35.106 101.189,31.524 96.77,31.524 Z" id="Path"></path>
            <path d="M232.77,31.524 L192.77,31.524 C188.352,31.524 184.77,35.106 184.77,39.524 C184.77,43.942 188.352,47.524 192.77,47.524 L232.77,47.524 C237.188,47.524 240.77,43.942 240.77,39.524 C240.77,35.106 237.189,31.524 232.77,31.524 Z" id="Path"></path>
            <path d="M280.77,31.524 L264.77,31.524 C260.352,31.524 256.77,35.106 256.77,39.524 C256.77,43.942 260.352,47.524 264.77,47.524 L280.77,47.524 C285.188,47.524 288.77,43.942 288.77,39.524 C288.77,35.106 285.189,31.524 280.77,31.524 Z" id="Path"></path>
            <path d="M152.77,431.524 L136.77,431.524 C132.352,431.524 128.77,435.106 128.77,439.524 C128.77,443.942 132.352,447.524 136.77,447.524 L152.77,447.524 C157.188,447.524 160.77,443.942 160.77,439.524 C160.77,435.106 157.189,431.524 152.77,431.524 Z" id="Path"></path>
            <path d="M320.77,392.164 C320.77,392.164 320.77,392.164 320.77,391.524 L320.77,369.364 C320.746,363.351 321.472,357.358 322.93,351.524 L329.81,324.084 C334.548,305.165 335.956,285.566 333.97,266.164 L325.97,215.684 C322.129,192.484 302.046,175.483 278.53,175.524 L272.77,175.524 C271.811,175.541 270.862,175.731 269.97,176.084 C262.534,165.8 250.66,159.655 237.97,159.524 L232.77,159.524 C229.2,159.52 225.675,160.313 222.45,161.844 C215.118,150.476 202.537,143.583 189.01,143.524 L184.77,143.524 C182.041,143.546 179.335,144.033 176.77,144.964 L176.77,63.524 C176.77,45.851 162.443,31.524 144.77,31.524 L143.25,31.524 C126.358,31.488 112.348,44.588 111.25,61.444 L99.73,242.884 C89.915,239.368 81.007,233.711 73.65,226.324 L66.45,219.124 C50.839,203.562 25.581,203.562 9.97,219.124 L5.41,223.524 C-0.166,229.129 -0.812,237.967 3.89,244.324 L19.01,264.644 C21.734,268.393 24.244,272.293 26.53,276.324 L28.21,279.524 C46.759,311.153 73.121,337.488 104.77,356.004 C109.715,358.859 112.764,364.134 112.77,369.844 L112.77,391.524 C112.753,391.817 112.753,392.111 112.77,392.404 C102.13,400.404 96.77,413.204 96.77,431.524 L96.77,455.524 C96.77,459.942 100.352,463.524 104.77,463.524 C109.188,463.524 112.77,459.942 112.77,455.524 L112.77,431.524 C112.77,408.484 121.73,399.524 144.77,399.524 L288.77,399.524 C312.77,399.524 320.77,407.524 320.77,431.524 L184.77,431.524 C180.352,431.524 176.77,435.106 176.77,439.524 C176.77,443.942 180.352,447.524 184.77,447.524 L320.77,447.524 L320.77,455.524 C320.77,459.942 324.352,463.524 328.77,463.524 C333.188,463.524 336.77,459.942 336.77,455.524 L336.77,431.524 C336.77,412.804 331.33,399.524 320.77,392.164 Z M315.33,320.564 L308.45,348.004 C306.348,354.945 305.112,362.12 304.77,369.364 L304.77,385.364 C299.522,384.158 294.155,383.541 288.77,383.524 L144.77,383.524 C139.384,383.518 134.014,384.135 128.77,385.364 L128.77,369.924 C128.844,358.418 122.735,347.757 112.77,342.004 C83.579,324.944 59.256,300.676 42.13,271.524 L40.77,268.644 C38.088,264.107 35.15,259.727 31.97,255.524 L16.77,234.964 L21.17,230.484 C30.54,221.125 45.72,221.125 55.09,230.484 L62.29,237.684 C72.386,247.862 84.874,255.343 98.61,259.444 L97.57,276.324 C97.245,280.66 100.443,284.461 104.77,284.884 L105.57,284.884 C109.807,284.892 113.316,281.594 113.57,277.364 L127.33,62.484 C127.879,54.056 134.884,47.506 143.33,47.524 L144.77,47.524 C153.607,47.524 160.77,54.687 160.77,63.524 L160.77,199.524 C160.77,203.942 164.352,207.524 168.77,207.524 C173.188,207.524 176.77,203.942 176.77,199.524 L176.77,167.524 C176.77,163.106 180.352,159.524 184.77,159.524 L189.01,159.524 C201.056,159.405 211.324,168.236 213.01,180.164 L216.77,208.644 C217.332,212.62 220.755,215.563 224.77,215.524 L225.89,215.524 C230.271,214.954 233.361,210.941 232.792,206.559 C232.785,206.507 232.778,206.455 232.77,206.404 L228.69,177.844 C228.69,177.844 228.69,177.284 228.69,176.964 C229.892,176.118 231.304,175.62 232.77,175.524 L237.65,175.524 C249.514,175.365 259.713,183.898 261.65,195.604 L264.77,216.884 C265.439,220.765 268.833,223.581 272.77,223.524 L274.13,223.524 C278.496,222.847 281.486,218.758 280.809,214.392 C280.797,214.316 280.784,214.24 280.77,214.164 L277.25,192.884 C277.25,192.404 277.25,191.924 277.25,191.444 L279.09,191.444 C294.994,191.252 308.626,202.77 311.09,218.484 L319.09,268.564 C320.853,285.984 319.58,303.578 315.33,320.564 Z" id="Shape" fill-rule="nonzero"></path>
        </g>
    </g>
</svg>